<svg xmlns="http://www.w3.org/2000/svg" xmlns:xlink="http://www.w3.org/1999/xlink" width="37" height="37" viewBox="0 0 37 37">
  <defs>
    <clipPath id="clip-path">
      <rect id="Rectangle_134" data-name="Rectangle 134" width="37" height="37" transform="translate(204 115.592)" fill="#fff"/>
    </clipPath>
  </defs>
  <g id="Group_185" data-name="Group 185" transform="translate(-204 -115.592)" clip-path="url(#clip-path)">
    <path id="Path_1681" data-name="Path 1681" d="M229.436,115.592a8.682,8.682,0,0,0-5.622,3.043,7.541,7.541,0,0,0-1.84,5.86,7.327,7.327,0,0,0,5.672-2.9A8.138,8.138,0,0,0,229.436,115.592Z"/>
    <path id="Path_1682" data-name="Path 1682" d="M237.231,128.005a9.365,9.365,0,0,0-7.069-3.753c-3.318,0-4.722,1.589-7.028,1.589-2.377,0-4.183-1.584-7.053-1.584a9.6,9.6,0,0,0-7.723,4.668c-2.676,4.149-2.218,11.949,2.118,18.593,1.552,2.377,3.624,5.05,6.334,5.073,2.412.024,3.092-1.547,6.359-1.563s3.887,1.584,6.295,1.559c2.712-.021,4.9-2.983,6.449-5.36a26.676,26.676,0,0,0,2.389-4.487A8.157,8.157,0,0,1,237.231,128.005Z"/>
  </g>
</svg>
