<svg xmlns="http://www.w3.org/2000/svg" width="20.636" height="22.753" viewBox="0 0 20.636 22.753">
  <g id="calendar_3_" data-name="calendar (3)" transform="translate(0 0)">
    <path id="Path_1684" data-name="Path 1684" d="M8.044,6.012a.8.8,0,0,1-.794-.794V2.044a.794.794,0,1,1,1.587,0V5.219A.8.8,0,0,1,8.044,6.012Z" transform="translate(-1.959 -1.25)"/>
    <path id="Path_1685" data-name="Path 1685" d="M16.044,6.012a.8.8,0,0,1-.794-.794V2.044a.794.794,0,1,1,1.587,0V5.219A.8.8,0,0,1,16.044,6.012Z" transform="translate(-1.492 -1.25)"/>
    <path id="Path_1686" data-name="Path 1686" d="M8.558,14.616a1.053,1.053,0,0,1-.4-.085,1.016,1.016,0,0,1-.656-.974,1.053,1.053,0,0,1,.085-.4,1.222,1.222,0,0,1,.222-.349,1.092,1.092,0,0,1,.349-.222,1.081,1.081,0,0,1,1.154.222,1.113,1.113,0,0,1,.307.751,1.591,1.591,0,0,1-.021.212.673.673,0,0,1-.063.19.8.8,0,0,1-.1.19,1.667,1.667,0,0,1-.127.159,1.113,1.113,0,0,1-.751.307Z" transform="translate(-1.944 -0.594)"/>
    <path id="Path_1687" data-name="Path 1687" d="M12.058,14.616a1.053,1.053,0,0,1-.4-.085A1.016,1.016,0,0,1,11,13.558a1.053,1.053,0,0,1,.085-.4,1.222,1.222,0,0,1,.222-.349,1.092,1.092,0,0,1,.349-.222,1.061,1.061,0,0,1,1.154.222,1.113,1.113,0,0,1,.307.751,1.591,1.591,0,0,1-.021.212.673.673,0,0,1-.063.19.8.8,0,0,1-.1.19,1.668,1.668,0,0,1-.127.159,1.113,1.113,0,0,1-.751.307Z" transform="translate(-1.74 -0.594)"/>
    <path id="Path_1688" data-name="Path 1688" d="M15.558,14.616a1.053,1.053,0,0,1-.4-.085,1.093,1.093,0,0,1-.349-.222l-.127-.159a.8.8,0,0,1-.1-.19.673.673,0,0,1-.063-.19,1.591,1.591,0,0,1-.021-.212,1.113,1.113,0,0,1,.307-.751,1.092,1.092,0,0,1,.349-.222,1.057,1.057,0,0,1,1.154.222,1.113,1.113,0,0,1,.307.751,1.591,1.591,0,0,1-.021.212.673.673,0,0,1-.063.19.8.8,0,0,1-.1.19,1.667,1.667,0,0,1-.127.159A1.113,1.113,0,0,1,15.558,14.616Z" transform="translate(-1.536 -0.594)"/>
    <path id="Path_1689" data-name="Path 1689" d="M8.558,18.116a1.053,1.053,0,0,1-.4-.085,1.222,1.222,0,0,1-.349-.222,1.113,1.113,0,0,1-.307-.751,1.053,1.053,0,0,1,.085-.4.987.987,0,0,1,.222-.349,1.063,1.063,0,1,1,.751,1.81Z" transform="translate(-1.944 -0.39)"/>
    <path id="Path_1690" data-name="Path 1690" d="M12.058,18.116A1.048,1.048,0,0,1,11,17.057a1.053,1.053,0,0,1,.085-.4.987.987,0,0,1,.222-.349,1.108,1.108,0,0,1,1.5,0,.987.987,0,0,1,.222.349,1.053,1.053,0,0,1,.085.4,1.048,1.048,0,0,1-1.058,1.058Z" transform="translate(-1.74 -0.39)"/>
    <path id="Path_1691" data-name="Path 1691" d="M15.558,18.117a1.113,1.113,0,0,1-.751-.307.988.988,0,0,1-.222-.349,1,1,0,0,1,0-.8.988.988,0,0,1,.222-.349,1.057,1.057,0,0,1,.952-.286.638.638,0,0,1,.2.063.8.8,0,0,1,.19.1,1.668,1.668,0,0,1,.159.127,1.058,1.058,0,0,1-.751,1.81Z" transform="translate(-1.536 -0.39)"/>
    <path id="Path_1692" data-name="Path 1692" d="M21.535,9.927H3.544a.794.794,0,1,1,0-1.587H21.535a.794.794,0,1,1,0,1.587Z" transform="translate(-2.221 -0.837)"/>
    <path id="Path_1693" data-name="Path 1693" d="M16.8,23.916H8.335c-3.863,0-6.085-2.222-6.085-6.085v-9c0-3.863,2.222-6.085,6.085-6.085H16.8c3.863,0,6.085,2.222,6.085,6.085v9C22.887,21.693,20.664,23.916,16.8,23.916ZM8.335,4.337c-3.027,0-4.5,1.471-4.5,4.5v9c0,3.027,1.471,4.5,4.5,4.5H16.8c3.027,0,4.5-1.471,4.5-4.5v-9c0-3.027-1.471-4.5-4.5-4.5Z" transform="translate(-2.25 -1.163)"/>
  </g>
</svg>
