<svg xmlns="http://www.w3.org/2000/svg" xmlns:xlink="http://www.w3.org/1999/xlink" width="37" height="37" viewBox="0 0 37 37">
  <defs>
    <clipPath id="clip-path">
      <rect id="Rectangle_132" data-name="Rectangle 132" width="37" height="37" transform="translate(76 115.592)" fill="#fff"/>
    </clipPath>
  </defs>
  <g id="Group_183" data-name="Group 183" transform="translate(-76 -115.592)" clip-path="url(#clip-path)">
    <path id="Path_1674" data-name="Path 1674" d="M84.672,134.092a9.767,9.767,0,0,1,1.382-5.021v-6.237H79.817a18.51,18.51,0,0,0,0,22.516h6.237v-6.237A9.77,9.77,0,0,1,84.672,134.092Z" fill="#fbbd00"/>
    <path id="Path_1675" data-name="Path 1675" d="M94.5,143.921l-4.336,4.336,4.336,4.336a18.358,18.358,0,0,0,11.258-3.818v-6.23H99.527A9.823,9.823,0,0,1,94.5,143.921Z" fill="#0f9d58"/>
    <path id="Path_1676" data-name="Path 1676" d="M86.054,139.113l-6.237,6.237a18.793,18.793,0,0,0,1.6,1.824A18.379,18.379,0,0,0,94.5,152.592v-8.671A9.831,9.831,0,0,1,86.054,139.113Z" fill="#31aa52"/>
    <path id="Path_1677" data-name="Path 1677" d="M113,134.092a18.673,18.673,0,0,0-.3-3.352l-.163-.888H94.5v8.671h8.777a9.779,9.779,0,0,1-3.75,4.021l6.231,6.231a18.707,18.707,0,0,0,1.823-1.6A18.376,18.376,0,0,0,113,134.092Z" fill="#3c79e6"/>
    <path id="Path_1678" data-name="Path 1678" d="M101.45,127.142l.766.767,6.132-6.132-.766-.767A18.382,18.382,0,0,0,94.5,115.592l-4.336,4.336,4.336,4.336A9.767,9.767,0,0,1,101.45,127.142Z" fill="#cf2d48"/>
    <path id="Path_1679" data-name="Path 1679" d="M94.5,124.264v-8.672a18.379,18.379,0,0,0-13.081,5.418,18.791,18.791,0,0,0-1.6,1.824l6.237,6.237A9.833,9.833,0,0,1,94.5,124.264Z" fill="#eb4132"/>
  </g>
</svg>
