<svg xmlns="http://www.w3.org/2000/svg" xmlns:xlink="http://www.w3.org/1999/xlink" width="135.844" height="98.595" viewBox="0 0 135.844 98.595">
  <defs>
    <linearGradient id="linear-gradient" x1="0.5" x2="1.661" y2="1.474" gradientUnits="objectBoundingBox">
      <stop offset="0" stop-color="#74b7d5"/>
      <stop offset="1" stop-color="#60a3c1"/>
    </linearGradient>
    <clipPath id="clip-path">
      <rect id="Rectangle_9" data-name="Rectangle 9" width="135.844" height="98.595" fill="url(#linear-gradient)"/>
    </clipPath>
  </defs>
  <g id="Group_7" data-name="Group 7" transform="translate(0)">
    <g id="Group_1" data-name="Group 1" transform="translate(0)" clip-path="url(#clip-path)">
      <path id="Path_1" data-name="Path 1" d="M18.528,27.845c-.634,1.557-1.21,3.019-1.824,4.465a76.914,76.914,0,0,1-4.66,9.659A6.54,6.54,0,0,1,7.162,45.3,6.408,6.408,0,0,1,0,39.342a7.454,7.454,0,0,1,1.886-5A35.161,35.161,0,0,0,7.1,24.367,37.96,37.96,0,0,0,9.346,10.843,8.349,8.349,0,0,1,24.9,6.233Q37.2,26.367,49.517,46.487c3.582,5.855,7.179,11.7,10.739,17.57a8.335,8.335,0,0,1-14.171,8.778c-2.515-3.991-4.943-8.035-7.406-12.059q-6.791-11.1-13.577-22.2-3.13-5.119-6.259-10.24c-.076-.124-.157-.245-.315-.49" transform="translate(0 -0.997)" fill="url(#linear-gradient)"/>
      <path id="Path_2" data-name="Path 2" d="M117.841,67.074a8.333,8.333,0,0,1-15.535,4.451Q91.2,53.324,80.06,35.14,73.5,24.416,66.939,13.691A8.334,8.334,0,0,1,76.182,1.326a8.746,8.746,0,0,1,5.363,4.22Q92.6,23.67,103.693,41.765q6.461,10.563,12.913,21.131a7.816,7.816,0,0,1,1.235,4.177" transform="translate(-31.274 -0.5)" fill="url(#linear-gradient)"/>
      <path id="Path_3" data-name="Path 3" d="M122.509,0a8.315,8.315,0,0,1,7.023,4.331q9.842,16.123,19.712,32.227,7.7,12.583,15.38,25.171a8.352,8.352,0,1,1-14.258,8.692q-8.491-13.874-16.98-27.75-8.568-14.012-17.128-28.031a15.158,15.158,0,0,1-2.207-4.447A8.4,8.4,0,0,1,122.509,0" transform="translate(-54.15)" fill="url(#linear-gradient)"/>
      <path id="Path_4" data-name="Path 4" d="M205.043,50.16a8.324,8.324,0,0,1-15.363,4.483c-2.676-4.285-5.284-8.612-7.921-12.922L166.329,16.508c-.616-1.006-1.241-2.006-1.846-3.018A8.351,8.351,0,1,1,178.76,4.825Q190.529,24.058,202.3,43.288c.572.934,1.142,1.869,1.688,2.817a7.962,7.962,0,0,1,1.057,4.055" transform="translate(-77.646 -0.344)" fill="url(#linear-gradient)"/>
      <path id="Path_5" data-name="Path 5" d="M228.6,30.395a8.4,8.4,0,0,1-7.4-4.1c-2.682-4.332-5.352-8.672-7.959-13.049a8.33,8.33,0,0,1,14.148-8.8q3.969,6.489,7.955,12.968a8.36,8.36,0,0,1-4.99,12.725,15.077,15.077,0,0,1-1.752.249" transform="translate(-100.847 -0.283)" fill="url(#linear-gradient)"/>
      <path id="Path_6" data-name="Path 6" d="M111.214,162.989a8.908,8.908,0,1,1,8.929,8.889,8.934,8.934,0,0,1-8.929-8.889" transform="translate(-52.9 -73.283)" fill="url(#linear-gradient)"/>
      <path id="Path_7" data-name="Path 7" d="M177.933,162.991a8.9,8.9,0,0,1-8.907,8.888,8.905,8.905,0,0,1,.055-17.81,8.868,8.868,0,0,1,8.852,8.923" transform="translate(-76.18 -73.284)" fill="url(#linear-gradient)"/>
    </g>
  </g>
</svg>
